<svg width="235" height="27" viewBox="0 0 235 27" fill="none" xmlns="http://www.w3.org/2000/svg">
<path d="M12.6211 4.29102L22.1002 7.47631L22.4456 6.44854L22.5626 5.37064L12.6211 4.29102ZM5.32617 26V36H12.5153L14.8053 29.1853L5.32617 26ZM0.210938 26L-9.15658 22.5L-14.2005 36H0.210938V26ZM9.77344 0.40625V-9.59375H2.83451L0.405922 -3.0937L9.77344 0.40625ZM13.043 0.40625L22.9845 1.48588L24.1877 -9.59375H13.043V0.40625ZM18.7207 26L9.24622 29.1991L11.5426 36H18.7207V26ZM11.3906 4.29102L1.454 5.41507L1.57416 6.47728L1.91614 7.49009L11.3906 4.29102ZM10.9512 0.40625V-9.59375H-0.24383L1.01455 1.5303L10.9512 0.40625ZM14.2383 0.40625L23.5995 -3.11062L21.1638 -9.59375H14.2383V0.40625ZM23.8535 26V36H38.2928L33.2147 22.4831L23.8535 26ZM18.3867 16.4902H28.3867V6.49023H18.3867V16.4902ZM18.3867 20.3047V30.3047H28.3867V20.3047H18.3867ZM4.6582 20.3047H-5.3418V30.3047H4.6582V20.3047ZM4.6582 16.4902V6.49023H-5.3418V16.4902H4.6582ZM3.14196 1.10572L-4.15296 22.8147L14.8053 29.1853L22.1002 7.47631L3.14196 1.10572ZM5.32617 16H0.210938V36H5.32617V16ZM9.57845 29.5L19.141 3.9062L0.405922 -3.0937L-9.15658 22.5L9.57845 29.5ZM9.77344 10.4062H13.043V-9.59375H9.77344V10.4062ZM3.10142 -0.673375L2.67954 3.21139L22.5626 5.37064L22.9845 1.48588L3.10142 -0.673375ZM28.1952 22.8009L20.8651 1.09194L1.91614 7.49009L9.24622 29.1991L28.1952 22.8009ZM21.3272 3.16696L20.8878 -0.717803L1.01455 1.5303L1.454 5.41507L21.3272 3.16696ZM10.9512 10.4062H14.2383V-9.59375H10.9512V10.4062ZM4.8771 3.92312L14.4923 29.5169L33.2147 22.4831L23.5995 -3.11062L4.8771 3.92312ZM23.8535 16H18.7207V36H23.8535V16ZM8.38672 16.4902V20.3047H28.3867V16.4902H8.38672ZM18.3867 10.3047H4.6582V30.3047H18.3867V10.3047ZM14.6582 20.3047V16.4902H-5.3418V20.3047H14.6582ZM4.6582 26.4902H18.3867V6.49023H4.6582V26.4902ZM32.2172 26L22.2176 25.9074L22.1242 36H32.2172V26ZM32.2523 22.2031V12.2031H22.3445L22.2528 22.1105L32.2523 22.2031ZM41.4809 21.2188L46.9376 29.5987L46.9716 29.5766L47.0055 29.5541L41.4809 21.2188ZM43.766 18.3535L53.0019 22.1873L53.0083 22.172L53.0146 22.1567L43.766 18.3535ZM42.7992 6.36523L34.9905 12.6122L35.022 12.6515L35.0539 12.6906L42.7992 6.36523ZM32.1117 4.2207H22.1117V14.2207H32.1117V4.2207ZM32.1117 0.40625V-9.59375H22.1117V0.40625H32.1117ZM42.518 1.26758L38.7376 10.5255L38.7511 10.531L38.7645 10.5364L42.518 1.26758ZM46.1918 3.74609L38.9654 10.6583L39.0038 10.6985L39.0426 10.7382L46.1918 3.74609ZM48.5824 7.57812L39.204 11.0489L39.216 11.0813L39.2282 11.1136L48.5824 7.57812ZM48.5824 18.8457L39.2191 15.3345L39.2115 15.3547L39.204 15.375L48.5824 18.8457ZM46.1918 22.6777L39.0426 15.6857L39.0229 15.7059L39.0032 15.7262L46.1918 22.6777ZM34.9242 0.40625H44.9242V-9.59375H34.9242V0.40625ZM34.9242 26V36H44.9242V26H34.9242ZM30.0902 26H20.0902V36H30.0902V26ZM30.0902 0.40625V-9.59375H20.0902V0.40625H30.0902ZM37.7367 16H32.2172V36H37.7367V16ZM42.2168 26.0926L42.2519 22.2957L22.2528 22.1105L22.2176 25.9074L42.2168 26.0926ZM32.2523 32.2031H37.7367V12.2031H32.2523V32.2031ZM37.7367 32.2031C40.7011 32.2031 43.9586 31.5386 46.9376 29.5987L36.0241 12.8388C36.9875 12.2114 37.7489 12.2031 37.7367 12.2031V32.2031ZM47.0055 29.5541C49.8538 27.6663 51.8132 25.0511 53.0019 22.1873L34.5301 14.5197C34.5947 14.3642 34.7329 14.0885 34.99 13.7662C35.2525 13.437 35.5817 13.1316 35.9562 12.8834L47.0055 29.5541ZM53.0146 22.1567C54.1468 19.4034 54.5395 16.5452 54.5395 13.8535H34.5395C34.5395 14.2398 34.5105 14.4782 34.4906 14.5942C34.4711 14.7077 34.4646 14.6789 34.5174 14.5504L53.0146 22.1567ZM54.5395 13.8535V12.5352H34.5395V13.8535H54.5395ZM54.5395 12.5352C54.5395 10.4891 54.3199 8.34795 53.7194 6.23403L34.4806 11.6996C34.466 11.6481 34.5395 11.8859 34.5395 12.5352H54.5395ZM53.7194 6.23403C53.1199 4.124 52.1237 1.97358 50.5445 0.0398887L35.0539 12.6906C34.6232 12.1631 34.4941 11.7471 34.4806 11.6996L53.7194 6.23403ZM50.6079 0.118284C49.0231 -1.86272 47.015 -3.39198 44.7088 -4.39891L36.706 13.9302C36.0639 13.6498 35.4503 13.1869 34.9905 12.6122L50.6079 0.118284ZM44.7088 -4.39891C42.4009 -5.40658 40.0432 -5.7793 37.8422 -5.7793V14.2207C37.7974 14.2207 37.3498 14.2113 36.706 13.9302L44.7088 -4.39891ZM37.8422 -5.7793H32.1117V14.2207H37.8422V-5.7793ZM42.1117 4.2207V0.40625H22.1117V4.2207H42.1117ZM32.1117 10.4062H37.8422V-9.59375H32.1117V10.4062ZM37.8422 10.4062C38.4201 10.4062 38.6739 10.4995 38.7376 10.5255L46.2983 -7.99035C43.5495 -9.11275 40.6862 -9.59375 37.8422 -9.59375V10.4062ZM38.7645 10.5364C38.9054 10.5935 38.9373 10.6289 38.9654 10.6583L53.4182 -3.16613C51.3838 -5.29298 48.9665 -6.90988 46.2715 -8.00126L38.7645 10.5364ZM39.0426 10.7382C39.0543 10.7501 39.0677 10.7654 39.0873 10.7969C39.1079 10.8299 39.1514 10.9067 39.204 11.0489L57.9608 4.10739C56.9542 1.38741 55.428 -1.1121 53.341 -3.24598L39.0426 10.7382ZM39.2282 11.1136C39.3026 11.3102 39.4262 11.7522 39.4262 12.5703H59.4262C59.4262 9.70871 58.9873 6.82263 57.9366 4.04269L39.2282 11.1136ZM39.4262 12.5703V13.8535H59.4262V12.5703H39.4262ZM39.4262 13.8535C39.4262 14.6498 39.3056 15.1039 39.2191 15.3345L57.9457 22.3569C58.9843 19.5875 59.4262 16.7134 59.4262 13.8535H39.4262ZM39.204 15.375C39.1514 15.5171 39.1079 15.5939 39.0873 15.6269C39.0677 15.6584 39.0543 15.6737 39.0426 15.6857L53.341 29.6698C55.428 27.5359 56.9542 25.0364 57.9608 22.3164L39.204 15.375ZM39.0032 15.7262C38.9872 15.7427 38.9499 15.7883 38.7734 15.8592L46.2274 34.4182C48.9102 33.3407 51.3339 31.7456 53.3804 29.6293L39.0032 15.7262ZM38.7734 15.8592C38.6761 15.8982 38.375 16 37.7367 16V36C40.5906 36 43.4653 35.5276 46.2274 34.4182L38.7734 15.8592ZM24.9242 0.40625V26H44.9242V0.40625H24.9242ZM34.9242 16H30.0902V36H34.9242V16ZM40.0902 26V0.40625H20.0902V26H40.0902ZM30.0902 10.4062H34.9242V-9.59375H30.0902V10.4062ZM65.7527 20.9902L56.2011 18.0293L56.0079 18.6526L55.8973 19.2958L65.7527 20.9902ZM72.1336 0.40625V-9.59375H64.7641L62.582 -2.55466L72.1336 0.40625ZM77.4949 0.40625L86.9246 3.73513L91.63 -9.59375H77.4949V0.40625ZM68.4598 26V36H75.5344L77.8894 29.3289L68.4598 26ZM64.8914 26L55.036 24.3056L53.0254 36H64.8914V26ZM59.8641 0.40625L69.4203 -2.53977L67.2456 -9.59375H59.8641V0.40625ZM66.2098 20.9902L76.0474 19.1953L75.9408 18.6114L75.766 18.0442L66.2098 20.9902ZM67.1238 26V36H79.1135L76.9614 24.2051L67.1238 26ZM63.5203 26L54.0866 29.3174L56.4365 36H63.5203V26ZM54.5203 0.40625V-9.59375H40.4036L45.0866 3.7236L54.5203 0.40625ZM75.3043 23.9511L81.6852 3.36716L62.582 -2.55466L56.2011 18.0293L75.3043 23.9511ZM72.1336 10.4062H77.4949V-9.59375H72.1336V10.4062ZM68.0653 -2.92263L59.0301 22.6711L77.8894 29.3289L86.9246 3.73513L68.0653 -2.92263ZM68.4598 16H64.8914V36H68.4598V16ZM74.7468 27.6944L75.6081 22.6847L55.8973 19.2958L55.036 24.3056L74.7468 27.6944ZM50.3079 3.35227L56.6536 23.9363L75.766 18.0442L69.4203 -2.53977L50.3079 3.35227ZM56.3722 22.7852L57.2862 27.7949L76.9614 24.2051L76.0474 19.1953L56.3722 22.7852ZM67.1238 16H63.5203V36H67.1238V16ZM72.954 22.6826L63.954 -2.9111L45.0866 3.7236L54.0866 29.3174L72.954 22.6826ZM54.5203 10.4062H59.8641V-9.59375H54.5203V10.4062ZM92.5734 4.29102L102.053 7.47631L102.398 6.44854L102.515 5.37064L92.5734 4.29102ZM85.2785 26V36H92.4677L94.7576 29.1853L85.2785 26ZM80.1633 26L70.7958 22.5L65.7518 36H80.1633V26ZM89.7258 0.40625V-9.59375H82.7869L80.3583 -3.0937L89.7258 0.40625ZM92.9953 0.40625L102.937 1.48588L104.14 -9.59375H92.9953V0.40625ZM98.673 26L89.1986 29.1991L91.4949 36H98.673V26ZM91.343 4.29102L81.4063 5.41507L81.5265 6.47728L81.8685 7.49009L91.343 4.29102ZM90.9035 0.40625V-9.59375H79.7085L80.9669 1.5303L90.9035 0.40625ZM94.1906 0.40625L103.552 -3.11062L101.116 -9.59375H94.1906V0.40625ZM103.806 26V36H118.245L113.167 22.4831L103.806 26ZM98.3391 16.4902H108.339V6.49023H98.3391V16.4902ZM98.3391 20.3047V30.3047H108.339V20.3047H98.3391ZM84.6105 20.3047H74.6105V30.3047H84.6105V20.3047ZM84.6105 16.4902V6.49023H74.6105V16.4902H84.6105ZM83.0943 1.10572L75.7994 22.8147L94.7576 29.1853L102.053 7.47631L83.0943 1.10572ZM85.2785 16H80.1633V36H85.2785V16ZM89.5308 29.5L99.0933 3.9062L80.3583 -3.0937L70.7958 22.5L89.5308 29.5ZM89.7258 10.4062H92.9953V-9.59375H89.7258V10.4062ZM83.0538 -0.673375L82.6319 3.21139L102.515 5.37064L102.937 1.48588L83.0538 -0.673375ZM108.148 22.8009L100.817 1.09194L81.8685 7.49009L89.1986 29.1991L108.148 22.8009ZM101.28 3.16696L100.84 -0.717803L80.9669 1.5303L81.4063 5.41507L101.28 3.16696ZM90.9035 10.4062H94.1906V-9.59375H90.9035V10.4062ZM84.8295 3.92312L94.4447 29.5169L113.167 22.4831L103.552 -3.11062L84.8295 3.92312ZM103.806 16H98.673V36H103.806V16ZM88.3391 16.4902V20.3047H108.339V16.4902H88.3391ZM98.3391 10.3047H84.6105V30.3047H98.3391V10.3047ZM94.6105 20.3047V16.4902H74.6105V20.3047H94.6105ZM84.6105 26.4902H98.3391V6.49023H84.6105V26.4902ZM130.609 0.40625H140.609V-9.59375H130.609V0.40625ZM130.609 26V36H140.609V26H130.609ZM125.757 26L117.231 31.2254L120.157 36H125.757V26ZM114.877 8.24609L123.403 3.02067L104.877 -27.2078V8.24609H114.877ZM114.877 26V36H124.877V26H114.877ZM110.043 26H100.043V36H110.043V26ZM110.043 0.40625V-9.59375H100.043V0.40625H110.043ZM114.877 0.40625L123.397 -4.82767L120.47 -9.59375H114.877V0.40625ZM125.793 18.1777L117.272 23.4117L135.793 53.5641V18.1777H125.793ZM125.793 0.40625V-9.59375H115.793V0.40625H125.793ZM120.609 0.40625V26H140.609V0.40625H120.609ZM130.609 16H125.757V36H130.609V16ZM134.284 20.7746L123.403 3.02067L106.35 13.4715L117.231 31.2254L134.284 20.7746ZM104.877 8.24609V26H124.877V8.24609H104.877ZM114.877 16H110.043V36H114.877V16ZM120.043 26V0.40625H100.043V26H120.043ZM110.043 10.4062H114.877V-9.59375H110.043V10.4062ZM106.356 5.64017L117.272 23.4117L134.314 12.9438L123.397 -4.82767L106.356 5.64017ZM135.793 18.1777V0.40625H115.793V18.1777H135.793ZM125.793 10.4062H130.609V-9.59375H125.793V10.4062ZM149.59 0.40625H159.59V-9.59375H149.59V0.40625ZM149.59 26V36H159.59V26H149.59ZM144.773 26H134.773V36H144.773V26ZM144.773 0.40625V-9.59375H134.773V0.40625H144.773ZM157.535 0.40625H167.535V-9.59375H157.535V0.40625ZM157.535 4.2207V14.2207H167.535V4.2207H157.535ZM136.916 4.2207H126.916V14.2207H136.916V4.2207ZM136.916 0.40625V-9.59375H126.916V0.40625H136.916ZM139.59 0.40625V26H159.59V0.40625H139.59ZM149.59 16H144.773V36H149.59V16ZM154.773 26V0.40625H134.773V26H154.773ZM144.773 10.4062H149.59V-9.59375H144.773V10.4062ZM147.535 0.40625V4.2207H167.535V0.40625H147.535ZM157.535 -5.7793H136.916V14.2207H157.535V-5.7793ZM146.916 4.2207V0.40625H126.916V4.2207H146.916ZM136.916 10.4062H157.535V-9.59375H136.916V10.4062ZM172.737 4.29102L182.216 7.47631L182.561 6.44854L182.678 5.37064L172.737 4.29102ZM165.442 26V36H172.631L174.921 29.1853L165.442 26ZM160.327 26L150.959 22.5L145.915 36H160.327V26ZM169.889 0.40625V-9.59375H162.95L160.522 -3.0937L169.889 0.40625ZM173.159 0.40625L183.1 1.48588L184.303 -9.59375H173.159V0.40625ZM178.836 26L169.362 29.1991L171.658 36H178.836V26ZM171.506 4.29102L161.57 5.41507L161.69 6.47728L162.032 7.49009L171.506 4.29102ZM171.067 0.40625V-9.59375H159.872L161.13 1.5303L171.067 0.40625ZM174.354 0.40625L183.715 -3.11062L181.279 -9.59375H174.354V0.40625ZM183.969 26V36H198.408L193.33 22.4831L183.969 26ZM178.502 16.4902H188.502V6.49023H178.502V16.4902ZM178.502 20.3047V30.3047H188.502V20.3047H178.502ZM164.774 20.3047H154.774V30.3047H164.774V20.3047ZM164.774 16.4902V6.49023H154.774V16.4902H164.774ZM163.258 1.10572L155.963 22.8147L174.921 29.1853L182.216 7.47631L163.258 1.10572ZM165.442 16H160.327V36H165.442V16ZM169.694 29.5L179.257 3.9062L160.522 -3.0937L150.959 22.5L169.694 29.5ZM169.889 10.4062H173.159V-9.59375H169.889V10.4062ZM163.217 -0.673375L162.795 3.21139L182.678 5.37064L183.1 1.48588L163.217 -0.673375ZM188.311 22.8009L180.981 1.09194L162.032 7.49009L169.362 29.1991L188.311 22.8009ZM181.443 3.16696L181.003 -0.717803L161.13 1.5303L161.57 5.41507L181.443 3.16696ZM171.067 10.4062H174.354V-9.59375H171.067V10.4062ZM164.993 3.92312L174.608 29.5169L193.33 22.4831L183.715 -3.11062L164.993 3.92312ZM183.969 16H178.836V36H183.969V16ZM168.502 16.4902V20.3047H188.502V16.4902H168.502ZM178.502 10.3047H164.774V30.3047H178.502V10.3047ZM174.774 20.3047V16.4902H154.774V20.3047H174.774ZM164.774 26.4902H178.502V6.49023H164.774V26.4902ZM209.858 12.7637H219.858V2.76367H209.858V12.7637ZM209.858 22.7305L217.741 28.8832L219.858 26.171V22.7305H209.858ZM208.083 24.2949L202.372 16.0859L202.344 16.1055L202.316 16.1252L208.083 24.2949ZM204.954 25.7539L207.907 35.3079L207.947 35.2957L207.986 35.2832L204.954 25.7539ZM195.743 25.543L191.96 34.7997L191.994 34.8139L192.029 34.8277L195.743 25.543ZM189.96 7.13867L180.466 3.99831L180.455 4.0313L180.444 4.06437L189.96 7.13867ZM192.104 3.27148L184.63 -3.37215L184.609 -3.34883L184.589 -3.32538L192.104 3.27148ZM195.462 0.863281L191.592 -8.35771L191.577 -8.3515L191.563 -8.34525L195.462 0.863281ZM205.2 1.10938L200.638 10.0083L200.653 10.0161L200.669 10.0237L205.2 1.10938ZM208.434 4.0625L199.852 9.19566L199.863 9.21345L199.874 9.23119L208.434 4.0625ZM209.841 8.35156V18.3516H221.067L219.774 7.19986L209.841 8.35156ZM205.13 8.35156L195.233 9.78401L196.473 18.3516H205.13V8.35156ZM204.356 6.01367L195.665 10.9589L195.683 10.9915L195.702 11.024L204.356 6.01367ZM202.704 4.43164L197.885 13.1938L197.971 13.2413L198.058 13.2871L202.704 4.43164ZM194.495 8.70312L184.781 6.32859L184.768 6.37965L184.757 6.43083L194.495 8.70312ZM194.548 17.7031L184.878 20.2533L184.882 20.2665L184.885 20.2798L194.548 17.7031ZM195.761 20.375L187.668 26.249L187.721 26.3229L187.776 26.3959L195.761 20.375ZM197.747 22.0098L193.437 31.0334L193.518 31.0718L193.599 31.1088L197.747 22.0098ZM202.721 22.3262L205.192 32.0163L205.256 31.9998L205.321 31.9823L202.721 22.3262ZM205.024 21.0957L212.294 27.9619L215.024 25.0715V21.0957H205.024ZM205.024 16.2969H215.024V6.29688H205.024V16.2969ZM199.944 16.2969H189.944V26.2969H199.944V16.2969ZM199.944 12.7637V2.76367H189.944V12.7637H199.944ZM199.858 12.7637V22.7305H219.858V12.7637H199.858ZM201.975 16.5778C202.124 16.387 202.252 16.2465 202.34 16.1548C202.429 16.0624 202.493 16.0043 202.522 15.9792C202.572 15.9346 202.536 15.9716 202.372 16.0859L213.793 32.504C214.985 31.6753 216.489 30.4881 217.741 28.8832L201.975 16.5778ZM202.316 16.1252C202.481 16.0089 202.552 15.9832 202.477 16.0184C202.403 16.0528 202.227 16.1274 201.922 16.2246L207.986 35.2832C209.903 34.6732 211.963 33.7966 213.85 32.4646L202.316 16.1252ZM202.001 16.1999C202.002 16.1996 201.866 16.2409 201.551 16.2805C201.239 16.3198 200.798 16.3516 200.208 16.3516V36.3516C202.725 36.3516 205.37 36.0921 207.907 35.3079L202.001 16.1999ZM200.208 16.3516C199.696 16.3516 199.488 16.2705 199.457 16.2582L192.029 34.8277C194.694 35.8936 197.462 36.3516 200.208 36.3516V16.3516ZM199.526 16.2862C199.512 16.2805 199.51 16.2788 199.517 16.2826C199.524 16.2864 199.536 16.2936 199.552 16.3044C199.568 16.3152 199.582 16.3266 199.595 16.3374C199.601 16.3426 199.605 16.3469 199.609 16.3502C199.61 16.3519 199.612 16.3531 199.612 16.354C199.613 16.3549 199.614 16.3554 199.614 16.3554L184.911 29.9142C186.892 32.0624 189.276 33.703 191.96 34.7997L199.526 16.2862ZM199.614 16.3554C199.64 16.3835 199.638 16.3886 199.614 16.348C199.589 16.3049 199.532 16.1964 199.462 15.9965L180.563 22.5387C181.485 25.2026 182.896 27.7289 184.911 29.9142L199.614 16.3554ZM199.462 15.9965C199.368 15.7228 199.221 15.1208 199.221 14.0469H179.221C179.221 16.887 179.603 19.7655 180.563 22.5387L199.462 15.9965ZM199.221 14.0469V12.3594H179.221V14.0469H199.221ZM199.221 12.3594C199.221 11.2227 199.366 10.5509 199.475 10.213L180.444 4.06437C179.569 6.77334 179.221 9.58198 179.221 12.3594H199.221ZM199.454 10.279C199.527 10.0576 199.589 9.93274 199.619 9.87897C199.648 9.82778 199.651 9.83263 199.62 9.86835L184.589 -3.32538C182.661 -1.12849 181.331 1.38317 180.466 3.99831L199.454 10.279ZM199.578 9.91512C199.567 9.9276 199.532 9.96348 199.475 10.0042C199.418 10.045 199.374 10.0662 199.361 10.0718L191.563 -8.34525C188.896 -7.21614 186.555 -5.5378 184.63 -3.37215L199.578 9.91512ZM199.331 10.0843C199.307 10.0945 199.321 10.0849 199.392 10.0715C199.467 10.0575 199.616 10.0371 199.856 10.0371V-9.96289C197.09 -9.96289 194.286 -9.48805 191.592 -8.35771L199.331 10.0843ZM199.856 10.0371C200.402 10.0371 200.718 10.0831 200.851 10.1097C200.979 10.1355 200.878 10.1312 200.638 10.0083L209.762 -7.78958C206.52 -9.45132 203.036 -9.96289 199.856 -9.96289V10.0371ZM200.669 10.0237C200.633 10.0058 200.498 9.93024 200.321 9.76864C200.14 9.60334 199.977 9.40418 199.852 9.19566L217.016 -1.07066C215.222 -4.07038 212.678 -6.30724 209.731 -7.80499L200.669 10.0237ZM199.874 9.23119C199.844 9.18222 199.838 9.15835 199.846 9.18191C199.855 9.2086 199.885 9.30805 199.907 9.50327L219.774 7.19986C219.442 4.33491 218.57 1.50293 216.995 -1.10619L199.874 9.23119ZM209.841 -1.64844H205.13V18.3516H209.841V-1.64844ZM215.027 6.91912C214.745 4.97373 214.132 2.94083 213.011 1.00331L195.702 11.024C195.354 10.4224 195.257 9.94814 195.233 9.78401L215.027 6.91912ZM213.048 1.06843C211.683 -1.33084 209.702 -3.18984 207.349 -4.42383L198.058 13.2871C197.136 12.8031 196.256 11.9988 195.665 10.9589L213.048 1.06843ZM207.523 -4.33052C204.869 -5.79035 202.131 -6.14844 199.962 -6.14844V13.8516C199.958 13.8516 199.91 13.8515 199.822 13.8432C199.734 13.8348 199.598 13.8174 199.421 13.7801C199.071 13.7059 198.522 13.5445 197.885 13.1938L207.523 -4.33052ZM199.962 -6.14844C197.674 -6.14844 195.218 -5.6886 192.862 -4.47214L202.034 13.3003C201.131 13.7667 200.351 13.8516 199.962 13.8516V-6.14844ZM192.862 -4.47214C190.582 -3.29573 188.75 -1.60692 187.383 0.377811L203.856 11.7198C203.474 12.2749 202.861 12.8739 202.034 13.3003L192.862 -4.47214ZM187.383 0.377811C186.054 2.30853 185.257 4.37912 184.781 6.32859L204.209 11.0777C204.248 10.9178 204.201 11.2188 203.856 11.7198L187.383 0.377811ZM184.757 6.43083C184.299 8.39106 184.126 10.3846 184.126 12.3242H204.126C204.126 11.5451 204.199 11.1246 204.233 10.9754L184.757 6.43083ZM184.126 12.3242V14.0469H204.126V12.3242H184.126ZM184.126 14.0469C184.126 16.0795 184.332 18.1818 184.878 20.2533L204.217 15.153C204.201 15.0917 204.126 14.7564 204.126 14.0469H184.126ZM184.885 20.2798C185.417 22.272 186.282 24.3401 187.668 26.249L203.854 14.501C204.184 14.9568 204.241 15.2436 204.21 15.1265L184.885 20.2798ZM187.776 26.3959C189.252 28.3535 191.161 29.9463 193.437 31.0334L202.057 12.9861C202.762 13.3232 203.347 13.8262 203.745 14.3541L187.776 26.3959ZM193.599 31.1088C195.88 32.149 198.23 32.5547 200.454 32.5547V12.5547C200.662 12.5547 201.207 12.5971 201.895 12.9107L193.599 31.1088ZM200.454 32.5547C201.842 32.5547 203.5 32.4474 205.192 32.0163L200.251 12.636C200.396 12.5993 200.507 12.5778 200.579 12.5657C200.651 12.5535 200.694 12.5489 200.704 12.548C200.718 12.5465 200.641 12.5547 200.454 12.5547V32.5547ZM205.321 31.9823C206.456 31.6768 207.936 31.1733 209.406 30.2721L198.955 13.2201C199.356 12.9742 199.676 12.8345 199.849 12.7656C199.941 12.7289 200.011 12.7048 200.054 12.6907C200.098 12.6764 200.121 12.6701 200.122 12.67L205.321 31.9823ZM209.406 30.2721C210.205 29.7827 211.279 29.0369 212.294 27.9619L197.754 14.2295C198.084 13.8804 198.372 13.6402 198.559 13.4964C198.749 13.3495 198.891 13.2595 198.955 13.2201L209.406 30.2721ZM215.024 21.0957V16.2969H195.024V21.0957H215.024ZM205.024 6.29688H199.944V26.2969H205.024V6.29688ZM209.944 16.2969V12.7637H189.944V16.2969H209.944ZM199.944 22.7637H209.858V2.76367H199.944V22.7637ZM234.991 22.2031H244.991V12.2031H234.991V22.2031ZM234.991 26V36H244.991V26H234.991ZM221.386 26H211.386V36H221.386V26ZM221.386 22.2031V12.2031H211.386V22.2031H221.386ZM222.863 0.40625H232.863V-9.59375H222.863V0.40625ZM222.863 26V36H232.863V26H222.863ZM218.029 26H208.029V36H218.029V26ZM218.029 0.40625V-9.59375H208.029V0.40625H218.029ZM233.216 10.9707H243.216V0.970703H233.216V10.9707ZM233.216 14.6797V24.6797H243.216V14.6797H233.216ZM221.386 14.6797H211.386V24.6797H221.386V14.6797ZM221.386 10.9707V0.970703H211.386V10.9707H221.386ZM234.939 0.40625H244.939V-9.59375H234.939V0.40625ZM234.939 4.2207V14.2207H244.939V4.2207H234.939ZM221.386 4.2207H211.386V14.2207H221.386V4.2207ZM221.386 0.40625V-9.59375H211.386V0.40625H221.386ZM224.991 22.2031V26H244.991V22.2031H224.991ZM234.991 16H221.386V36H234.991V16ZM231.386 26V22.2031H211.386V26H231.386ZM221.386 32.2031H234.991V12.2031H221.386V32.2031ZM212.863 0.40625V26H232.863V0.40625H212.863ZM222.863 16H218.029V36H222.863V16ZM228.029 26V0.40625H208.029V26H228.029ZM218.029 10.4062H222.863V-9.59375H218.029V10.4062ZM223.216 10.9707V14.6797H243.216V10.9707H223.216ZM233.216 4.67969H221.386V24.6797H233.216V4.67969ZM231.386 14.6797V10.9707H211.386V14.6797H231.386ZM221.386 20.9707H233.216V0.970703H221.386V20.9707ZM224.939 0.40625V4.2207H244.939V0.40625H224.939ZM234.939 -5.7793H221.386V14.2207H234.939V-5.7793ZM231.386 4.2207V0.40625H211.386V4.2207H231.386ZM221.386 10.4062H234.939V-9.59375H221.386V10.4062Z" fill="white"/>
</svg>
