<svg width="166" height="142" viewBox="0 0 166 142" fill="none" xmlns="http://www.w3.org/2000/svg">
<path d="M47.9039 0.0625V28.5H42.0641V0.0625H47.9039ZM56.6539 0.0625V4.65234H33.4508V0.0625H56.6539ZM70.2469 4.92578L62.5125 28.5H56.282L66.8484 0.0625H70.8133L70.2469 4.92578ZM76.6727 28.5L68.9188 4.92578L68.2938 0.0625H72.2977L82.9227 28.5H76.6727ZM76.3211 17.9141V22.5039H61.3016V17.9141H76.3211ZM92.2188 0.0625V28.5H86.3594V0.0625H92.2188ZM109.25 0.0625L97.9805 14.1055L91.4766 21.0977L90.4219 15.5508L94.8164 9.53516L102.062 0.0625H109.25ZM102.59 28.5L94.2109 15.3555L98.5469 11.7227L109.523 28.5H102.59ZM131.671 23.9297V28.5H116.534V23.9297H131.671ZM118.448 0.0625V28.5H112.589V0.0625H118.448ZM129.698 11.6445V16.0977H116.534V11.6445H129.698ZM131.652 0.0625V4.65234H116.534V0.0625H131.652ZM40.9508 54.9258L33.2164 78.5H26.9859L37.5523 50.0625H41.5172L40.9508 54.9258ZM47.3766 78.5L39.6227 54.9258L38.9977 50.0625H43.0016L53.6266 78.5H47.3766ZM47.025 67.9141V72.5039H32.0055V67.9141H47.025ZM62.9422 73.9883L68.6063 50.0625H71.7703L72.493 54.0469L66.4578 78.5H63.0594L62.9422 73.9883ZM60.032 50.0625L64.7195 73.9883L64.3289 78.5H60.5398L54.2313 50.0625H60.032ZM77.4734 73.8906L82.1023 50.0625H87.9031L81.6141 78.5H77.825L77.4734 73.8906ZM73.5477 50.0625L79.2508 74.0859L79.0945 78.5H75.6961L69.6219 54.0273L70.4031 50.0625H73.5477ZM102.59 54.9258L94.8555 78.5H88.625L99.1914 50.0625H103.156L102.59 54.9258ZM109.016 78.5L101.262 54.9258L100.637 50.0625H104.641L115.266 78.5H109.016ZM108.664 67.9141V72.5039H93.6445V67.9141H108.664ZM120.03 50.0625L125.968 63.0312L131.905 50.0625H138.292L128.937 68.1484V78.5H122.999V68.1484L113.624 50.0625H120.03ZM49.4367 114.086V118.5H38.4016V114.086H49.4367ZM74.143 124.105V128.5H54.6898V124.75L63.8891 114.887C64.8135 113.858 65.5427 112.953 66.0766 112.172C66.6104 111.378 66.9945 110.668 67.2289 110.043C67.4763 109.405 67.6 108.799 67.6 108.227C67.6 107.367 67.4568 106.632 67.1703 106.02C66.8839 105.395 66.4607 104.913 65.9008 104.574C65.3539 104.236 64.6768 104.066 63.8695 104.066C63.0102 104.066 62.268 104.275 61.643 104.691C61.031 105.108 60.5622 105.688 60.2367 106.43C59.9242 107.172 59.768 108.012 59.768 108.949H54.1234C54.1234 107.257 54.5271 105.707 55.3344 104.301C56.1417 102.882 57.281 101.755 58.7523 100.922C60.2237 100.076 61.9685 99.6523 63.9867 99.6523C65.9789 99.6523 67.6586 99.9779 69.0258 100.629C70.406 101.267 71.4477 102.191 72.1508 103.402C72.8669 104.6 73.225 106.033 73.225 107.699C73.225 108.637 73.0753 109.555 72.7758 110.453C72.4763 111.339 72.0466 112.224 71.4867 113.109C70.9398 113.982 70.2758 114.867 69.4945 115.766C68.7133 116.664 67.8474 117.595 66.8969 118.559L61.9555 124.105H74.143ZM83.7516 115.551L79.2594 114.477L80.8805 100.062H96.857V104.613H85.5094L84.8062 110.922C85.1838 110.701 85.7568 110.466 86.525 110.219C87.2932 109.958 88.1526 109.828 89.1031 109.828C90.4833 109.828 91.7073 110.043 92.775 110.473C93.8427 110.902 94.7477 111.527 95.4898 112.348C96.245 113.168 96.818 114.171 97.2086 115.355C97.5992 116.54 97.7945 117.882 97.7945 119.379C97.7945 120.642 97.5992 121.846 97.2086 122.992C96.818 124.125 96.2255 125.141 95.4312 126.039C94.637 126.924 93.6409 127.621 92.443 128.129C91.245 128.637 89.8258 128.891 88.1852 128.891C86.9612 128.891 85.7763 128.708 84.6305 128.344C83.4977 127.979 82.4755 127.439 81.5641 126.723C80.6656 126.007 79.943 125.141 79.3961 124.125C78.8622 123.096 78.5823 121.924 78.5562 120.609H84.1422C84.2203 121.417 84.4286 122.113 84.7672 122.699C85.1187 123.272 85.581 123.715 86.1539 124.027C86.7268 124.34 87.3974 124.496 88.1656 124.496C88.8818 124.496 89.4937 124.359 90.0016 124.086C90.5094 123.812 90.9195 123.435 91.232 122.953C91.5445 122.458 91.7724 121.885 91.9156 121.234C92.0719 120.57 92.15 119.854 92.15 119.086C92.15 118.318 92.0588 117.621 91.8766 116.996C91.6943 116.371 91.4143 115.831 91.0367 115.375C90.6591 114.919 90.1773 114.568 89.5914 114.32C89.0185 114.073 88.3479 113.949 87.5797 113.949C86.538 113.949 85.7307 114.112 85.1578 114.438C84.5979 114.763 84.1292 115.134 83.7516 115.551ZM102.149 107.035V105.531C102.149 104.451 102.384 103.467 102.852 102.582C103.321 101.697 104.011 100.987 104.923 100.453C105.834 99.9193 106.954 99.6523 108.282 99.6523C109.649 99.6523 110.789 99.9193 111.7 100.453C112.624 100.987 113.315 101.697 113.77 102.582C114.239 103.467 114.473 104.451 114.473 105.531V107.035C114.473 108.09 114.239 109.06 113.77 109.945C113.315 110.831 112.631 111.54 111.72 112.074C110.808 112.608 109.682 112.875 108.341 112.875C106.986 112.875 105.847 112.608 104.923 112.074C104.011 111.54 103.321 110.831 102.852 109.945C102.384 109.06 102.149 108.09 102.149 107.035ZM105.88 105.531V107.035C105.88 107.491 105.964 107.927 106.134 108.344C106.316 108.747 106.589 109.079 106.954 109.34C107.332 109.587 107.787 109.711 108.321 109.711C108.881 109.711 109.337 109.587 109.688 109.34C110.04 109.079 110.3 108.747 110.47 108.344C110.639 107.927 110.723 107.491 110.723 107.035V105.531C110.723 105.049 110.632 104.607 110.45 104.203C110.281 103.786 110.014 103.454 109.649 103.207C109.298 102.947 108.842 102.816 108.282 102.816C107.761 102.816 107.318 102.947 106.954 103.207C106.589 103.454 106.316 103.786 106.134 104.203C105.964 104.607 105.88 105.049 105.88 105.531ZM115.743 123.031V121.527C115.743 120.46 115.977 119.483 116.446 118.598C116.928 117.712 117.624 117.003 118.536 116.469C119.46 115.935 120.593 115.668 121.934 115.668C123.289 115.668 124.421 115.935 125.333 116.469C126.244 117.003 126.934 117.712 127.403 118.598C127.872 119.483 128.106 120.46 128.106 121.527V123.031C128.106 124.099 127.872 125.076 127.403 125.961C126.947 126.846 126.264 127.556 125.352 128.09C124.441 128.624 123.315 128.891 121.973 128.891C120.619 128.891 119.48 128.624 118.555 128.09C117.631 127.556 116.928 126.846 116.446 125.961C115.977 125.076 115.743 124.099 115.743 123.031ZM119.493 121.527V123.031C119.493 123.5 119.597 123.943 119.805 124.359C120.014 124.776 120.3 125.108 120.665 125.355C121.042 125.603 121.479 125.727 121.973 125.727C122.598 125.727 123.087 125.603 123.438 125.355C123.79 125.108 124.031 124.776 124.161 124.359C124.304 123.943 124.376 123.5 124.376 123.031V121.527C124.376 121.059 124.285 120.622 124.102 120.219C123.92 119.802 123.647 119.47 123.282 119.223C122.93 118.962 122.481 118.832 121.934 118.832C121.387 118.832 120.932 118.962 120.567 119.223C120.216 119.47 119.949 119.802 119.766 120.219C119.584 120.622 119.493 121.059 119.493 121.527ZM123.321 104.125L109.434 126.352L106.7 124.906L120.587 102.68L123.321 104.125Z" fill="#4EFF01"/>
<g opacity="0.2" filter="url(#filter0_f_61_107)">
<path d="M47.9039 8.0625V36.5H42.0641V8.0625H47.9039ZM56.6539 8.0625V12.6523H33.4508V8.0625H56.6539ZM70.2469 12.9258L62.5125 36.5H56.282L66.8484 8.0625H70.8133L70.2469 12.9258ZM76.6727 36.5L68.9188 12.9258L68.2938 8.0625H72.2977L82.9227 36.5H76.6727ZM76.3211 25.9141V30.5039H61.3016V25.9141H76.3211ZM92.2188 8.0625V36.5H86.3594V8.0625H92.2188ZM109.25 8.0625L97.9805 22.1055L91.4766 29.0977L90.4219 23.5508L94.8164 17.5352L102.062 8.0625H109.25ZM102.59 36.5L94.2109 23.3555L98.5469 19.7227L109.523 36.5H102.59ZM131.671 31.9297V36.5H116.534V31.9297H131.671ZM118.448 8.0625V36.5H112.589V8.0625H118.448ZM129.698 19.6445V24.0977H116.534V19.6445H129.698ZM131.652 8.0625V12.6523H116.534V8.0625H131.652ZM40.9508 62.9258L33.2164 86.5H26.9859L37.5523 58.0625H41.5172L40.9508 62.9258ZM47.3766 86.5L39.6227 62.9258L38.9977 58.0625H43.0016L53.6266 86.5H47.3766ZM47.025 75.9141V80.5039H32.0055V75.9141H47.025ZM62.9422 81.9883L68.6063 58.0625H71.7703L72.493 62.0469L66.4578 86.5H63.0594L62.9422 81.9883ZM60.032 58.0625L64.7195 81.9883L64.3289 86.5H60.5398L54.2313 58.0625H60.032ZM77.4734 81.8906L82.1023 58.0625H87.9031L81.6141 86.5H77.825L77.4734 81.8906ZM73.5477 58.0625L79.2508 82.0859L79.0945 86.5H75.6961L69.6219 62.0273L70.4031 58.0625H73.5477ZM102.59 62.9258L94.8555 86.5H88.625L99.1914 58.0625H103.156L102.59 62.9258ZM109.016 86.5L101.262 62.9258L100.637 58.0625H104.641L115.266 86.5H109.016ZM108.664 75.9141V80.5039H93.6445V75.9141H108.664ZM120.03 58.0625L125.968 71.0312L131.905 58.0625H138.292L128.937 76.1484V86.5H122.999V76.1484L113.624 58.0625H120.03ZM49.4367 122.086V126.5H38.4016V122.086H49.4367ZM74.143 132.105V136.5H54.6898V132.75L63.8891 122.887C64.8135 121.858 65.5427 120.953 66.0766 120.172C66.6104 119.378 66.9945 118.668 67.2289 118.043C67.4763 117.405 67.6 116.799 67.6 116.227C67.6 115.367 67.4568 114.632 67.1703 114.02C66.8839 113.395 66.4607 112.913 65.9008 112.574C65.3539 112.236 64.6768 112.066 63.8695 112.066C63.0102 112.066 62.268 112.275 61.643 112.691C61.031 113.108 60.5622 113.688 60.2367 114.43C59.9242 115.172 59.768 116.012 59.768 116.949H54.1234C54.1234 115.257 54.5271 113.707 55.3344 112.301C56.1417 110.882 57.281 109.755 58.7523 108.922C60.2237 108.076 61.9685 107.652 63.9867 107.652C65.9789 107.652 67.6586 107.978 69.0258 108.629C70.406 109.267 71.4477 110.191 72.1508 111.402C72.8669 112.6 73.225 114.033 73.225 115.699C73.225 116.637 73.0753 117.555 72.7758 118.453C72.4763 119.339 72.0466 120.224 71.4867 121.109C70.9398 121.982 70.2758 122.867 69.4945 123.766C68.7133 124.664 67.8474 125.595 66.8969 126.559L61.9555 132.105H74.143ZM83.7516 123.551L79.2594 122.477L80.8805 108.062H96.857V112.613H85.5094L84.8062 118.922C85.1838 118.701 85.7568 118.466 86.525 118.219C87.2932 117.958 88.1526 117.828 89.1031 117.828C90.4833 117.828 91.7073 118.043 92.775 118.473C93.8427 118.902 94.7477 119.527 95.4898 120.348C96.245 121.168 96.818 122.171 97.2086 123.355C97.5992 124.54 97.7945 125.882 97.7945 127.379C97.7945 128.642 97.5992 129.846 97.2086 130.992C96.818 132.125 96.2255 133.141 95.4312 134.039C94.637 134.924 93.6409 135.621 92.443 136.129C91.245 136.637 89.8258 136.891 88.1852 136.891C86.9612 136.891 85.7763 136.708 84.6305 136.344C83.4977 135.979 82.4755 135.439 81.5641 134.723C80.6656 134.007 79.943 133.141 79.3961 132.125C78.8622 131.096 78.5823 129.924 78.5562 128.609H84.1422C84.2203 129.417 84.4286 130.113 84.7672 130.699C85.1187 131.272 85.581 131.715 86.1539 132.027C86.7268 132.34 87.3974 132.496 88.1656 132.496C88.8818 132.496 89.4937 132.359 90.0016 132.086C90.5094 131.812 90.9195 131.435 91.232 130.953C91.5445 130.458 91.7724 129.885 91.9156 129.234C92.0719 128.57 92.15 127.854 92.15 127.086C92.15 126.318 92.0588 125.621 91.8766 124.996C91.6943 124.371 91.4143 123.831 91.0367 123.375C90.6591 122.919 90.1773 122.568 89.5914 122.32C89.0185 122.073 88.3479 121.949 87.5797 121.949C86.538 121.949 85.7307 122.112 85.1578 122.438C84.5979 122.763 84.1292 123.134 83.7516 123.551ZM102.149 115.035V113.531C102.149 112.451 102.384 111.467 102.852 110.582C103.321 109.697 104.011 108.987 104.923 108.453C105.834 107.919 106.954 107.652 108.282 107.652C109.649 107.652 110.789 107.919 111.7 108.453C112.624 108.987 113.315 109.697 113.77 110.582C114.239 111.467 114.473 112.451 114.473 113.531V115.035C114.473 116.09 114.239 117.06 113.77 117.945C113.315 118.831 112.631 119.54 111.72 120.074C110.808 120.608 109.682 120.875 108.341 120.875C106.986 120.875 105.847 120.608 104.923 120.074C104.011 119.54 103.321 118.831 102.852 117.945C102.384 117.06 102.149 116.09 102.149 115.035ZM105.88 113.531V115.035C105.88 115.491 105.964 115.927 106.134 116.344C106.316 116.747 106.589 117.079 106.954 117.34C107.332 117.587 107.787 117.711 108.321 117.711C108.881 117.711 109.337 117.587 109.688 117.34C110.04 117.079 110.3 116.747 110.47 116.344C110.639 115.927 110.723 115.491 110.723 115.035V113.531C110.723 113.049 110.632 112.607 110.45 112.203C110.281 111.786 110.014 111.454 109.649 111.207C109.298 110.947 108.842 110.816 108.282 110.816C107.761 110.816 107.318 110.947 106.954 111.207C106.589 111.454 106.316 111.786 106.134 112.203C105.964 112.607 105.88 113.049 105.88 113.531ZM115.743 131.031V129.527C115.743 128.46 115.977 127.483 116.446 126.598C116.928 125.712 117.624 125.003 118.536 124.469C119.46 123.935 120.593 123.668 121.934 123.668C123.289 123.668 124.421 123.935 125.333 124.469C126.244 125.003 126.934 125.712 127.403 126.598C127.872 127.483 128.106 128.46 128.106 129.527V131.031C128.106 132.099 127.872 133.076 127.403 133.961C126.947 134.846 126.264 135.556 125.352 136.09C124.441 136.624 123.315 136.891 121.973 136.891C120.619 136.891 119.48 136.624 118.555 136.09C117.631 135.556 116.928 134.846 116.446 133.961C115.977 133.076 115.743 132.099 115.743 131.031ZM119.493 129.527V131.031C119.493 131.5 119.597 131.943 119.805 132.359C120.014 132.776 120.3 133.108 120.665 133.355C121.042 133.603 121.479 133.727 121.973 133.727C122.598 133.727 123.087 133.603 123.438 133.355C123.79 133.108 124.031 132.776 124.161 132.359C124.304 131.943 124.376 131.5 124.376 131.031V129.527C124.376 129.059 124.285 128.622 124.102 128.219C123.92 127.802 123.647 127.47 123.282 127.223C122.93 126.962 122.481 126.832 121.934 126.832C121.387 126.832 120.932 126.962 120.567 127.223C120.216 127.47 119.949 127.802 119.766 128.219C119.584 128.622 119.493 129.059 119.493 129.527ZM123.321 112.125L109.434 134.352L106.7 132.906L120.587 110.68L123.321 112.125Z" fill="#4EFF01"/>
</g>
<defs>
<filter id="filter0_f_61_107" x="21.9859" y="3.0625" width="121.306" height="138.828" filterUnits="userSpaceOnUse" color-interpolation-filters="sRGB">
<feFlood flood-opacity="0" result="BackgroundImageFix"/>
<feBlend mode="normal" in="SourceGraphic" in2="BackgroundImageFix" result="shape"/>
<feGaussianBlur stdDeviation="2.5" result="effect1_foregroundBlur_61_107"/>
</filter>
</defs>
</svg>
